<?xml version="1.0" encoding="UTF-8"?>
<svg width="58px" height="59px" viewBox="0 0 58 59" version="1.1" xmlns="http://www.w3.org/2000/svg" xmlns:xlink="http://www.w3.org/1999/xlink">
    <title>Group</title>
    <g id="Mobile" stroke="none" stroke-width="1" fill="none" fill-rule="evenodd">
        <g id="What" transform="translate(-764.000000, -7241.000000)" fill="#FFFFFF" fill-rule="nonzero">
            <g id="Footer" transform="translate(-170.366344, 6724.301251)">
                <g id="Group" transform="translate(934.366344, 517.423431)">
                    <path d="M19.8843333,36.3250421 L14.5,36.3250421 L14.5,31.4607293 L19.9640833,31.4607293 C24.5025833,31.4607293 24.8046667,36.3250421 19.8843333,36.3250421 Z M36.2161667,29.8465519 L43.5096667,29.8465519 C43.2269167,25.6961557 36.9121667,25.062101 36.2161667,29.8465519 Z M14.5,21.7805049 L14.5,26.6206171 L20.2734167,26.6206171 C24.3165,26.6206171 24.9545,21.7805049 19.7731667,21.7805049 L14.5,21.7805049 Z M58,12.1002805 L58,45.9810659 C58,52.6628408 52.5915,58.0813464 45.9166667,58.0813464 L12.0833333,58.0813464 C5.4085,58.0813464 0,52.6628408 0,45.9810659 L0,12.1002805 C0,5.41850561 5.4085,0 12.0833333,0 L45.9166667,0 C52.5915,0 58,5.41850561 58,12.1002805 Z M33.8333333,19.3604488 L45.9166667,19.3604488 L45.9166667,16.9403927 L33.8333333,16.9403927 L33.8333333,19.3604488 Z M25.2493333,28.1162118 C29.8579167,25.7590771 29.68875,17.1049565 20.8679167,16.9742735 L9.66666667,16.9742735 L9.66666667,41.1215933 L20.0849167,41.1215933 C31.0130833,41.1215933 30.827,30.1490589 25.2493333,28.1162118 Z M48.17625,29.5730856 C47.5140833,25.3065266 44.4835833,22.4339201 39.5173333,22.4339201 C34.4568333,22.4339201 31.4166667,25.6767952 31.4166667,31.9858815 C31.4166667,38.3530491 34.72025,41.1409537 39.672,41.1409537 C44.62375,41.1409537 47.1781667,38.39419 47.8886667,36.3008415 L42.7870833,36.3008415 C41.0084167,38.3699895 35.7956667,37.5616907 36.1001667,33.0265056 L48.3285,33.0265056 C48.3526667,31.49219 48.2995,30.3910645 48.17625,29.5730856 Z" id="Shape"></path>
                </g>
            </g>
        </g>
    </g>
</svg>