<?xml version="1.0" encoding="UTF-8"?>
<svg width="58px" height="59px" viewBox="0 0 58 59" version="1.1" xmlns="http://www.w3.org/2000/svg" xmlns:xlink="http://www.w3.org/1999/xlink">
    <title>Group</title>
    <g id="Mobile" stroke="none" stroke-width="1" fill="none" fill-rule="evenodd">
        <g id="What" transform="translate(-462.000000, -7241.000000)" fill="#FFFFFF" fill-rule="nonzero">
            <g id="Footer" transform="translate(-170.366344, 6724.301251)">
                <g id="Group" transform="translate(632.366344, 517.423431)">
                    <path d="M45.9166667,0 L12.0833333,0 C5.41091667,0 0,5.41850561 0,12.1002805 L0,45.9810659 C0,52.6628408 5.41091667,58.0813464 12.0833333,58.0813464 L45.9166667,58.0813464 C52.5915,58.0813464 58,52.6628408 58,45.9810659 L58,12.1002805 C58,5.41850561 52.5915,0 45.9166667,0 Z M19.3333333,45.9810659 L12.0833333,45.9810659 L12.0833333,19.3604488 L19.3333333,19.3604488 L19.3333333,45.9810659 Z M15.7083333,16.2918177 C13.3738333,16.2918177 11.4791667,14.3799734 11.4791667,12.0228387 C11.4791667,9.66570407 13.3738333,7.75385975 15.7083333,7.75385975 C18.0428333,7.75385975 19.9375,9.66570407 19.9375,12.0228387 C19.9375,14.3799734 18.04525,16.2918177 15.7083333,16.2918177 Z M48.3333333,45.9810659 L41.0833333,45.9810659 L41.0833333,32.4190715 C41.0833333,24.2683226 31.4166667,24.8854369 31.4166667,32.4190715 L31.4166667,45.9810659 L24.1666667,45.9810659 L24.1666667,19.3604488 L31.4166667,19.3604488 L31.4166667,23.6318478 C34.7903333,17.3735827 48.3333333,16.911352 48.3333333,29.6239067 L48.3333333,45.9810659 Z" id="Shape"></path>
                </g>
            </g>
        </g>
    </g>
</svg>