<?xml version="1.0" encoding="UTF-8"?>
<svg width="58px" height="59px" viewBox="0 0 58 59" version="1.1" xmlns="http://www.w3.org/2000/svg" xmlns:xlink="http://www.w3.org/1999/xlink">
    <title>Group</title>
    <g id="Mobile" stroke="none" stroke-width="1" fill="none" fill-rule="evenodd">
        <g id="What" transform="translate(-617.000000, -7241.000000)" fill="#FFFFFF" fill-rule="nonzero">
            <g id="Footer" transform="translate(-170.366344, 6724.301251)">
                <g id="Group" transform="translate(787.366344, 517.423431)">
                    <path d="M45.9166667,0 L12.0833333,0 C5.41091667,0 0,5.41850561 0,12.1002805 L0,45.9810659 C0,52.6628408 5.41091667,58.0813464 12.0833333,58.0813464 L45.9166667,58.0813464 C52.5915,58.0813464 58,52.6628408 58,45.9810659 L58,12.1002805 C58,5.41850561 52.5915,0 45.9166667,0 Z M45.58075,22.3540582 C46.0858333,33.5274572 37.76525,45.985906 23.03325,45.985906 C18.55275,45.985906 14.384,44.6718156 10.8725833,42.4163233 C15.0824167,42.9124348 19.2825833,41.7435477 22.6175833,39.127467 C19.1448333,39.0621255 16.2158333,36.7654923 15.2080833,33.6097391 C16.4526667,33.8469046 17.6755,33.776723 18.7895833,33.474216 C14.9736667,32.7070582 12.3419167,29.2657384 12.4265,25.5848331 C13.4946667,26.1801669 14.7199167,26.5383352 16.0176667,26.5794762 C12.4869167,24.2150813 11.4864167,19.5443731 13.5623333,15.9723703 C17.4749167,20.7786017 23.3208333,23.941615 29.9135,24.2731627 C28.7559167,19.3047875 32.5235,14.5203366 37.6444167,14.5203366 C39.9233333,14.5203366 41.9871667,15.4835189 43.4323333,17.0299348 C45.24,16.6741865 46.9389167,16.0135112 48.4735,15.1035701 C47.879,16.9597532 46.6223333,18.5158492 44.98625,19.498392 C46.5909167,19.3047875 48.1206667,18.8788576 49.5416667,18.247223 C48.48075,19.8347798 47.1346667,21.2335722 45.58075,22.3540582 Z" id="Shape"></path>
                </g>
            </g>
        </g>
    </g>
</svg>